<mxfile host="app.diagrams.net" modified="2023-10-14T10:41:50.195Z" agent="Mozilla/5.0 (Windows NT 10.0; Win64; x64) AppleWebKit/537.36 (KHTML, like Gecko) Chrome/117.0.0.0 Safari/537.36" etag="JcC9BrfMlxwc-yvUd9mg" version="22.0.4" type="device">
  <diagram name="Strona-1" id="2sr115m4o1Xw2LwrC2Lx">
    <mxGraphModel dx="1434" dy="758" grid="1" gridSize="10" guides="1" tooltips="1" connect="1" arrows="1" fold="1" page="1" pageScale="1" pageWidth="827" pageHeight="1169" math="0" shadow="0">
      <root>
        <mxCell id="0" />
        <mxCell id="1" parent="0" />
        <mxCell id="kUxaMKV0nD3v1uPd3T3X-1" value="&lt;b&gt;Wydział&lt;/b&gt;" style="rounded=0;whiteSpace=wrap;html=1;" vertex="1" parent="1">
          <mxGeometry x="350" y="110" width="120" height="60" as="geometry" />
        </mxCell>
        <mxCell id="kUxaMKV0nD3v1uPd3T3X-2" value="&lt;b&gt;Dane pracownika&lt;/b&gt;" style="rounded=0;whiteSpace=wrap;html=1;" vertex="1" parent="1">
          <mxGeometry x="120" y="280" width="120" height="60" as="geometry" />
        </mxCell>
        <mxCell id="kUxaMKV0nD3v1uPd3T3X-3" value="nazwa" style="ellipse;whiteSpace=wrap;html=1;" vertex="1" parent="1">
          <mxGeometry x="300" y="40" width="80" height="40" as="geometry" />
        </mxCell>
        <mxCell id="kUxaMKV0nD3v1uPd3T3X-4" value="adres" style="ellipse;whiteSpace=wrap;html=1;" vertex="1" parent="1">
          <mxGeometry x="440" y="40" width="84" height="45" as="geometry" />
        </mxCell>
        <mxCell id="kUxaMKV0nD3v1uPd3T3X-5" value="" style="endArrow=none;html=1;rounded=0;entryX=0.75;entryY=0;entryDx=0;entryDy=0;" edge="1" parent="1" source="kUxaMKV0nD3v1uPd3T3X-4" target="kUxaMKV0nD3v1uPd3T3X-1">
          <mxGeometry width="50" height="50" relative="1" as="geometry">
            <mxPoint x="390" y="420" as="sourcePoint" />
            <mxPoint x="440" y="370" as="targetPoint" />
          </mxGeometry>
        </mxCell>
        <mxCell id="kUxaMKV0nD3v1uPd3T3X-6" value="" style="endArrow=none;html=1;rounded=0;entryX=0.342;entryY=0;entryDx=0;entryDy=0;entryPerimeter=0;exitX=0.713;exitY=0.975;exitDx=0;exitDy=0;exitPerimeter=0;" edge="1" parent="1" source="kUxaMKV0nD3v1uPd3T3X-3" target="kUxaMKV0nD3v1uPd3T3X-1">
          <mxGeometry width="50" height="50" relative="1" as="geometry">
            <mxPoint x="390" y="420" as="sourcePoint" />
            <mxPoint x="440" y="370" as="targetPoint" />
          </mxGeometry>
        </mxCell>
        <mxCell id="kUxaMKV0nD3v1uPd3T3X-7" value="imię&amp;nbsp;" style="ellipse;whiteSpace=wrap;html=1;" vertex="1" parent="1">
          <mxGeometry x="20" y="390" width="70" height="40" as="geometry" />
        </mxCell>
        <mxCell id="kUxaMKV0nD3v1uPd3T3X-8" value="tytuł naukowy" style="ellipse;whiteSpace=wrap;html=1;" vertex="1" parent="1">
          <mxGeometry x="120" y="440" width="80" height="40" as="geometry" />
        </mxCell>
        <mxCell id="kUxaMKV0nD3v1uPd3T3X-9" value="nazwisko" style="ellipse;whiteSpace=wrap;html=1;" vertex="1" parent="1">
          <mxGeometry x="230" y="430" width="80" height="40" as="geometry" />
        </mxCell>
        <mxCell id="kUxaMKV0nD3v1uPd3T3X-15" value="&lt;b&gt;Dane grupy&lt;/b&gt;" style="rounded=0;whiteSpace=wrap;html=1;" vertex="1" parent="1">
          <mxGeometry x="130" y="110" width="120" height="60" as="geometry" />
        </mxCell>
        <mxCell id="kUxaMKV0nD3v1uPd3T3X-16" value="" style="endArrow=none;html=1;rounded=0;" edge="1" parent="1" source="kUxaMKV0nD3v1uPd3T3X-1" target="kUxaMKV0nD3v1uPd3T3X-15">
          <mxGeometry width="50" height="50" relative="1" as="geometry">
            <mxPoint x="390" y="420" as="sourcePoint" />
            <mxPoint x="440" y="370" as="targetPoint" />
          </mxGeometry>
        </mxCell>
        <mxCell id="kUxaMKV0nD3v1uPd3T3X-17" value="identyfikator" style="ellipse;whiteSpace=wrap;html=1;" vertex="1" parent="1">
          <mxGeometry x="10" y="180" width="80" height="50" as="geometry" />
        </mxCell>
        <mxCell id="kUxaMKV0nD3v1uPd3T3X-18" value="nazwa" style="ellipse;whiteSpace=wrap;html=1;" vertex="1" parent="1">
          <mxGeometry y="100" width="90" height="60" as="geometry" />
        </mxCell>
        <mxCell id="kUxaMKV0nD3v1uPd3T3X-19" value="kierunek" style="ellipse;whiteSpace=wrap;html=1;" vertex="1" parent="1">
          <mxGeometry x="10" y="20" width="80" height="60" as="geometry" />
        </mxCell>
        <mxCell id="kUxaMKV0nD3v1uPd3T3X-20" value="specjalność" style="ellipse;whiteSpace=wrap;html=1;" vertex="1" parent="1">
          <mxGeometry x="150" y="25" width="90" height="60" as="geometry" />
        </mxCell>
        <mxCell id="kUxaMKV0nD3v1uPd3T3X-21" value="semestr" style="ellipse;whiteSpace=wrap;html=1;" vertex="1" parent="1">
          <mxGeometry x="10" y="290" width="80" height="60" as="geometry" />
        </mxCell>
        <mxCell id="kUxaMKV0nD3v1uPd3T3X-22" value="" style="endArrow=none;html=1;rounded=0;exitX=1;exitY=0;exitDx=0;exitDy=0;" edge="1" parent="1" source="kUxaMKV0nD3v1uPd3T3X-21" target="kUxaMKV0nD3v1uPd3T3X-15">
          <mxGeometry width="50" height="50" relative="1" as="geometry">
            <mxPoint x="390" y="420" as="sourcePoint" />
            <mxPoint x="440" y="370" as="targetPoint" />
          </mxGeometry>
        </mxCell>
        <mxCell id="kUxaMKV0nD3v1uPd3T3X-23" value="" style="endArrow=none;html=1;rounded=0;exitX=1;exitY=0.5;exitDx=0;exitDy=0;" edge="1" parent="1" source="kUxaMKV0nD3v1uPd3T3X-18" target="kUxaMKV0nD3v1uPd3T3X-15">
          <mxGeometry width="50" height="50" relative="1" as="geometry">
            <mxPoint x="390" y="420" as="sourcePoint" />
            <mxPoint x="440" y="370" as="targetPoint" />
          </mxGeometry>
        </mxCell>
        <mxCell id="kUxaMKV0nD3v1uPd3T3X-24" value="" style="endArrow=none;html=1;rounded=0;exitX=1;exitY=1;exitDx=0;exitDy=0;" edge="1" parent="1" source="kUxaMKV0nD3v1uPd3T3X-17" target="kUxaMKV0nD3v1uPd3T3X-15">
          <mxGeometry width="50" height="50" relative="1" as="geometry">
            <mxPoint x="390" y="420" as="sourcePoint" />
            <mxPoint x="440" y="370" as="targetPoint" />
          </mxGeometry>
        </mxCell>
        <mxCell id="kUxaMKV0nD3v1uPd3T3X-25" value="" style="endArrow=none;html=1;rounded=0;" edge="1" parent="1" source="kUxaMKV0nD3v1uPd3T3X-15" target="kUxaMKV0nD3v1uPd3T3X-20">
          <mxGeometry width="50" height="50" relative="1" as="geometry">
            <mxPoint x="390" y="420" as="sourcePoint" />
            <mxPoint x="440" y="370" as="targetPoint" />
          </mxGeometry>
        </mxCell>
        <mxCell id="kUxaMKV0nD3v1uPd3T3X-26" value="" style="endArrow=none;html=1;rounded=0;" edge="1" parent="1" source="kUxaMKV0nD3v1uPd3T3X-15" target="kUxaMKV0nD3v1uPd3T3X-19">
          <mxGeometry width="50" height="50" relative="1" as="geometry">
            <mxPoint x="390" y="420" as="sourcePoint" />
            <mxPoint x="440" y="370" as="targetPoint" />
          </mxGeometry>
        </mxCell>
        <mxCell id="kUxaMKV0nD3v1uPd3T3X-27" value="&lt;b&gt;Dane studenta&lt;/b&gt;" style="rounded=0;whiteSpace=wrap;html=1;" vertex="1" parent="1">
          <mxGeometry x="320" y="280" width="120" height="60" as="geometry" />
        </mxCell>
        <mxCell id="kUxaMKV0nD3v1uPd3T3X-29" value="nazwisko" style="ellipse;whiteSpace=wrap;html=1;" vertex="1" parent="1">
          <mxGeometry x="470" y="500" width="84" height="50" as="geometry" />
        </mxCell>
        <mxCell id="kUxaMKV0nD3v1uPd3T3X-30" value="imię" style="ellipse;whiteSpace=wrap;html=1;" vertex="1" parent="1">
          <mxGeometry x="390" y="560" width="90" height="50" as="geometry" />
        </mxCell>
        <mxCell id="kUxaMKV0nD3v1uPd3T3X-31" value="data urodzenia" style="ellipse;whiteSpace=wrap;html=1;" vertex="1" parent="1">
          <mxGeometry x="490" y="380" width="80" height="50" as="geometry" />
        </mxCell>
        <mxCell id="kUxaMKV0nD3v1uPd3T3X-32" value="indeks" style="ellipse;whiteSpace=wrap;html=1;" vertex="1" parent="1">
          <mxGeometry x="620" y="350" width="90" height="55" as="geometry" />
        </mxCell>
        <mxCell id="kUxaMKV0nD3v1uPd3T3X-36" value="" style="endArrow=none;html=1;rounded=0;exitX=0;exitY=0;exitDx=0;exitDy=0;entryX=1;entryY=0.75;entryDx=0;entryDy=0;" edge="1" parent="1" source="kUxaMKV0nD3v1uPd3T3X-31" target="kUxaMKV0nD3v1uPd3T3X-27">
          <mxGeometry width="50" height="50" relative="1" as="geometry">
            <mxPoint x="390" y="420" as="sourcePoint" />
            <mxPoint x="440" y="370" as="targetPoint" />
          </mxGeometry>
        </mxCell>
        <mxCell id="kUxaMKV0nD3v1uPd3T3X-37" value="" style="endArrow=none;html=1;rounded=0;exitX=0.333;exitY=0.06;exitDx=0;exitDy=0;exitPerimeter=0;" edge="1" parent="1" source="kUxaMKV0nD3v1uPd3T3X-29" target="kUxaMKV0nD3v1uPd3T3X-27">
          <mxGeometry width="50" height="50" relative="1" as="geometry">
            <mxPoint x="390" y="420" as="sourcePoint" />
            <mxPoint x="440" y="370" as="targetPoint" />
          </mxGeometry>
        </mxCell>
        <mxCell id="kUxaMKV0nD3v1uPd3T3X-38" value="" style="endArrow=none;html=1;rounded=0;exitX=0.5;exitY=0;exitDx=0;exitDy=0;" edge="1" parent="1" source="kUxaMKV0nD3v1uPd3T3X-30" target="kUxaMKV0nD3v1uPd3T3X-27">
          <mxGeometry width="50" height="50" relative="1" as="geometry">
            <mxPoint x="390" y="420" as="sourcePoint" />
            <mxPoint x="440" y="370" as="targetPoint" />
          </mxGeometry>
        </mxCell>
        <mxCell id="kUxaMKV0nD3v1uPd3T3X-39" value="" style="endArrow=none;html=1;rounded=0;exitX=0.611;exitY=0.018;exitDx=0;exitDy=0;exitPerimeter=0;" edge="1" parent="1" source="kUxaMKV0nD3v1uPd3T3X-32" target="kUxaMKV0nD3v1uPd3T3X-27">
          <mxGeometry width="50" height="50" relative="1" as="geometry">
            <mxPoint x="390" y="420" as="sourcePoint" />
            <mxPoint x="440" y="370" as="targetPoint" />
          </mxGeometry>
        </mxCell>
        <mxCell id="kUxaMKV0nD3v1uPd3T3X-40" value="" style="endArrow=none;html=1;rounded=0;exitX=1;exitY=0.5;exitDx=0;exitDy=0;edgeStyle=orthogonalEdgeStyle;entryX=0.5;entryY=1;entryDx=0;entryDy=0;" edge="1" parent="1" source="kUxaMKV0nD3v1uPd3T3X-27" target="kUxaMKV0nD3v1uPd3T3X-1">
          <mxGeometry width="50" height="50" relative="1" as="geometry">
            <mxPoint x="390" y="420" as="sourcePoint" />
            <mxPoint x="420" y="280" as="targetPoint" />
            <Array as="points">
              <mxPoint x="410" y="280" />
            </Array>
          </mxGeometry>
        </mxCell>
        <mxCell id="kUxaMKV0nD3v1uPd3T3X-42" value="" style="endArrow=none;html=1;rounded=0;exitX=0.5;exitY=0;exitDx=0;exitDy=0;entryX=0.408;entryY=0.967;entryDx=0;entryDy=0;entryPerimeter=0;" edge="1" parent="1" source="kUxaMKV0nD3v1uPd3T3X-2" target="kUxaMKV0nD3v1uPd3T3X-15">
          <mxGeometry width="50" height="50" relative="1" as="geometry">
            <mxPoint x="390" y="420" as="sourcePoint" />
            <mxPoint x="440" y="370" as="targetPoint" />
          </mxGeometry>
        </mxCell>
        <mxCell id="kUxaMKV0nD3v1uPd3T3X-43" value="" style="endArrow=none;html=1;rounded=0;edgeStyle=orthogonalEdgeStyle;exitX=0.433;exitY=0;exitDx=0;exitDy=0;exitPerimeter=0;" edge="1" parent="1" source="kUxaMKV0nD3v1uPd3T3X-27">
          <mxGeometry width="50" height="50" relative="1" as="geometry">
            <mxPoint x="199.5" y="210" as="sourcePoint" />
            <mxPoint x="249.5" y="160" as="targetPoint" />
          </mxGeometry>
        </mxCell>
        <mxCell id="kUxaMKV0nD3v1uPd3T3X-45" value="" style="endArrow=none;html=1;rounded=0;exitX=0.5;exitY=0;exitDx=0;exitDy=0;" edge="1" parent="1" source="kUxaMKV0nD3v1uPd3T3X-8" target="kUxaMKV0nD3v1uPd3T3X-2">
          <mxGeometry width="50" height="50" relative="1" as="geometry">
            <mxPoint x="390" y="420" as="sourcePoint" />
            <mxPoint x="440" y="370" as="targetPoint" />
          </mxGeometry>
        </mxCell>
        <mxCell id="kUxaMKV0nD3v1uPd3T3X-46" value="" style="endArrow=none;html=1;rounded=0;exitX=1;exitY=0;exitDx=0;exitDy=0;" edge="1" parent="1" source="kUxaMKV0nD3v1uPd3T3X-7" target="kUxaMKV0nD3v1uPd3T3X-2">
          <mxGeometry width="50" height="50" relative="1" as="geometry">
            <mxPoint x="390" y="420" as="sourcePoint" />
            <mxPoint x="440" y="370" as="targetPoint" />
          </mxGeometry>
        </mxCell>
        <mxCell id="kUxaMKV0nD3v1uPd3T3X-47" value="" style="endArrow=none;html=1;rounded=0;exitX=0.738;exitY=0.125;exitDx=0;exitDy=0;exitPerimeter=0;" edge="1" parent="1" source="kUxaMKV0nD3v1uPd3T3X-9" target="kUxaMKV0nD3v1uPd3T3X-2">
          <mxGeometry width="50" height="50" relative="1" as="geometry">
            <mxPoint x="390" y="420" as="sourcePoint" />
            <mxPoint x="440" y="370" as="targetPoint" />
          </mxGeometry>
        </mxCell>
      </root>
    </mxGraphModel>
  </diagram>
</mxfile>
